# xmcd CD database file
#
# Track frame offsets:
#	150
#	23464
#	47744
#	71488
#	94010
#	118962
#	147497
#	177323
#	200399
#	224094
#
# Disc length: 3227 seconds
#
# Revision: 0
# Processed by: cddbd v1.4PL0 Copyright (c) Steve Scherf et al.
# Submitted via: CDex 1.51
#
DISCID=960c990a
DTITLE=Llewellyn - Colour Healing
DYEAR=2001
DGENRE=New Age
TTITLE0=Llewellyn - Colour Healing - 01 - Brilliance
TTITLE1=Llewellyn - Colour Healing - 02 - Red
TTITLE2=Llewellyn - Colour Healing - 03 - Orange
TTITLE3=Llewellyn - Colour Healing - 04 - Yellow
TTITLE4=Llewellyn - Colour Healing - 05 - Green
TTITLE5=Llewellyn - Colour Healing - 06 - Blue
TTITLE6=Llewellyn - Colour Healing - 07 - Indigo
TTITLE7=Llewellyn - Colour Healing - 08 - Purple
TTITLE8=Llewellyn - Colour Healing - 09 - Silver
TTITLE9=Llewellyn - Colour Healing - 10 - Gold
EXTD=YEAR: 2001
EXTT0=
EXTT1=
EXTT2=
EXTT3=
EXTT4=
EXTT5=
EXTT6=
EXTT7=
EXTT8=
EXTT9=
PLAYORDER=
